<svg width="24" height="24" viewBox="0 0 24 24" fill="none" xmlns="http://www.w3.org/2000/svg">
<g id="email">
<path id="vector" d="M1.5 6C1.5 5.17031 2.17031 4.5 3 4.5H21C21.8297 4.5 22.5 5.17031 22.5 6V18C22.5 18.8297 21.8297 19.5 21 19.5H3C2.17031 19.5 1.5 18.8297 1.5 18V6ZM12 13.8891L4.11092 6C3.59529 6.13594 3.18748 6.54375 3.05154 7.05937L7.94061 11.9484L3.05154 16.8375C3.18748 17.3531 3.59529 17.7609 4.11092 17.8969L8.99998 13.0078L12 16.0078L15 13.0078L19.889 17.8969C20.4047 17.7609 20.8125 17.3531 20.9484 16.8375L16.0594 11.9484L20.9484 7.05937C20.8125 6.54375 20.4047 6.13594 19.889 6L12 13.8891Z" fill="black"/>
</g>
</svg>
