<svg xmlns="http://www.w3.org/2000/svg" width="178" height="40" viewBox="0 0 178 40" fill="none">
  <path d="M65.0556 14.152C65.0556 12.8945 64.5773 12.6539 62.6402 12.5074V11.4927H68.3822V12.5074C66.8022 12.6758 66.6594 12.8945 66.6594 14.152V28.4875H64.9604L54.7447 15.7222V25.8041C54.7447 27.0616 55.223 27.3021 57.1601 27.4487V28.4634H51.4181V27.4487C52.9981 27.2803 53.141 27.0616 53.141 25.8041V14.0558C52.5436 13.017 52.2081 12.5577 51.3943 12.5096V11.4949H57.4242L65.0556 21.0671V14.1542V14.152Z" fill="white"/>
  <path d="M80.2254 20.4855V21.0891H72.594C72.5464 23.9671 74.1242 25.7539 76.3015 25.7539C77.8317 25.7539 78.9571 25.1984 79.8662 23.989L80.3207 24.2799C79.6757 26.9392 77.8317 28.7041 74.8189 28.7041C71.2781 28.7041 68.5986 26.3116 68.5986 22.2504C68.5986 17.9465 71.5421 15.1909 74.9856 15.1909C78.429 15.1909 80.2254 17.415 80.2254 20.4855ZM72.6178 19.9781H76.4465C76.4465 17.6337 75.992 16.2057 74.6999 16.2057C73.4078 16.2057 72.7368 17.7278 72.6178 19.9781Z" fill="white"/>
  <path d="M87.5496 15.4335H90.3481V16.7391H87.5496V24.7411C87.5496 25.9002 88.0041 26.4098 88.9131 26.4098C89.5343 26.4098 90.0624 26.1911 90.636 25.8062L90.9952 26.3376C90.0862 27.8357 88.7465 28.7061 86.8332 28.7061C84.6321 28.7061 83.0997 27.5951 83.0997 24.7411V16.7391H81.7362V15.9408C83.6495 15.217 85.3723 13.8129 86.6168 12.1465H87.5496V15.4335Z" fill="white"/>
  <path d="M102.672 19.1076H108.749V14.1279C108.749 12.8705 108.606 12.678 107.003 12.5074V11.4927H115.162V12.5074C113.582 12.6758 113.439 12.8705 113.439 14.1279V25.8281C113.439 27.0856 113.582 27.2781 115.162 27.4487V28.4634H107.003V27.4487C108.606 27.2803 108.749 27.0856 108.749 25.8281V20.6057H102.672V25.8281C102.672 27.0856 102.815 27.2781 104.395 27.4487V28.4634H96.2351V27.4487C97.8388 27.2803 97.9817 27.0856 97.9817 25.8281V14.1279C97.9817 12.8705 97.8388 12.678 96.2351 12.5074V11.4927H104.395V12.5074C102.815 12.6758 102.672 12.8705 102.672 14.1279V19.1076Z" fill="white"/>
  <path d="M127.222 20.4855V21.0891H119.59C119.543 23.9671 121.121 25.7539 123.298 25.7539C124.828 25.7539 125.954 25.1984 126.863 23.989L127.317 24.2799C126.672 26.9392 124.828 28.7041 121.815 28.7041C118.275 28.7041 115.595 26.3116 115.595 22.2504C115.595 17.9465 118.539 15.1909 121.982 15.1909C125.425 15.1909 127.222 17.415 127.222 20.4855ZM119.614 19.9781H123.443C123.443 17.6337 122.988 16.2057 121.696 16.2057C120.404 16.2057 119.733 17.7278 119.614 19.9781Z" fill="white"/>
  <path d="M140.214 25.8042C140.214 26.3837 140.286 26.8911 140.859 26.8911C141.195 26.8911 141.504 26.8189 141.673 26.7468L141.84 27.4007C141.05 28.1989 140.022 28.7063 138.682 28.7063C137.342 28.7063 136.29 27.9561 135.931 26.6746C135.236 27.6893 134.089 28.6341 132.319 28.6341C130.308 28.6341 128.897 27.4728 128.897 25.3952C128.897 23.3176 130.356 22.421 132.055 21.8174L135.86 20.4637V17.9968C135.86 16.8858 135.548 16.1357 134.615 16.1357C133.682 16.1357 133.323 16.9099 133.323 18.0449C133.323 18.6004 133.418 19.1559 133.537 19.7376L130.882 20.1006C130.187 19.8579 129.709 19.2783 129.709 18.4079C129.709 16.2079 131.957 15.1931 134.853 15.1931C138.204 15.1931 140.212 16.256 140.212 19.3986V25.8042H140.214ZM135.86 25.9726V21.5003L134.544 22.0076C133.706 22.3226 133.156 22.7818 133.156 24.1596C133.156 25.393 133.611 26.3116 134.808 26.3116C135.191 26.3116 135.479 26.1913 135.86 25.9726Z" fill="white"/>
  <path d="M148.924 26.5783C148.924 27.3525 149.307 27.4487 150.263 27.5209V28.4634H143.158V27.5209C144.115 27.4487 144.498 27.3525 144.498 26.5783V12.0482L143.182 11.3724V10.6464L148.181 9.5354H148.924V26.5783Z" fill="white"/>
  <path d="M157.131 15.4335H159.929V16.7391H157.131V24.7411C157.131 25.9002 157.585 26.4098 158.494 26.4098C159.116 26.4098 159.644 26.1911 160.217 25.8062L160.576 26.3376C159.667 27.8357 158.328 28.7061 156.414 28.7061C154.213 28.7061 152.681 27.5951 152.681 24.7411V16.7391H151.317V15.9408C153.231 15.217 154.954 13.8129 156.198 12.1465H157.131V15.4335Z" fill="white"/>
  <path d="M163.306 12.0482L161.99 11.3724V10.6464L166.989 9.5354H167.732V17.6096C168.641 16.4483 170.004 15.193 172.182 15.193C174.478 15.193 175.794 16.5227 175.794 19.158V26.5805C175.794 27.3547 176.177 27.4509 177.134 27.5231V28.4656H170.1V27.5231C171.056 27.4509 171.368 27.3547 171.368 26.5805V19.521C171.368 18.4581 171.009 17.8283 169.764 17.8283C168.998 17.8283 168.329 18.047 167.73 18.3597V26.5783C167.73 27.3525 168.041 27.4487 168.998 27.5209V28.4634H161.964V27.5209C162.92 27.4487 163.304 27.3525 163.304 26.5783V12.0482H163.306Z" fill="white"/>
  <path d="M11.7047 20C11.7047 16.1138 14.4318 12.8727 18.0571 12.1204C15.0378 5.06533 8.09029 0.127197 0 0.127197V39.3217H19.6673V28.0458C15.2694 28.0458 11.7047 24.4439 11.7047 20Z" fill="white"/>
  <path d="M19.6673 0.678223V11.9541C24.0653 11.9541 27.6299 15.556 27.6299 19.9999C27.6299 23.8861 24.9029 27.1272 21.2776 27.8795C24.2969 34.9346 31.2444 39.8727 39.3347 39.8727V0.678223H19.6673Z" fill="white"/>
</svg>